<?xml version="1.0" encoding="utf-8"?>
<!-- Generator: Adobe Illustrator 27.5.0, SVG Export Plug-In . SVG Version: 6.00 Build 0)  -->
<svg version="1.1" id="Logo" xmlns="http://www.w3.org/2000/svg" xmlns:xlink="http://www.w3.org/1999/xlink" x="0px" y="0px"
	 viewBox="0 0 267.7 330.4" style="enable-background:new 0 0 267.7 330.4;" xml:space="preserve">
<style type="text/css">
	.st0{fill:#1D1D1B;stroke:url(#SVGID_1_);stroke-width:3;stroke-miterlimit:10;}
	.st1{fill:#E94E1B;}
	.st2{font-family:'Microsoft-Yi-Baiti';}
	.st3{font-size:56px;}
	.st4{font-size:61.64px;}
	.st5{font-size:55px;}
	.st6{fill:url(#SVGID_00000085212172662897422130000015084983930082573220_);}
	.st7{fill:url(#SVGID_00000034079870102019026590000004542217045284209318_);}
	.st8{fill:url(#SVGID_00000161616020448350024820000002643167315140829364_);}
	.st9{fill:url(#SVGID_00000155129979713287404290000010771325948492465285_);}
	.st10{fill:url(#SVGID_00000085930162876919030260000014537584903827481529_);}
	.st11{fill:url(#SVGID_00000177449106445121873060000013136236876808628394_);}
	.st12{fill:url(#SVGID_00000052094556643768623690000009442366052614091149_);}
</style>
<linearGradient id="SVGID_1_" gradientUnits="userSpaceOnUse" x1="0" y1="115.8828" x2="267.69" y2="115.8828" gradientTransform="matrix(1 0 0 -1 0 281.1028)">
	<stop  offset="0" style="stop-color:#E94E1B"/>
	<stop  offset="1" style="stop-color:#8E181B"/>
</linearGradient>
<rect x="1.5" y="1.5" class="st0" width="264.7" height="327.4"/>
<text transform="matrix(1 0 0 1 69.25 58.94)" class="st1 st2 st3">Broke</text>
<text transform="matrix(1 0 0 1 178.9 58.94)" class="st1 st2 st4">n</text>
<text transform="matrix(1 0 0 1 64.16 300.83)" class="st1 st2 st5">Records</text>
<linearGradient id="SVGID_00000111184242674174763320000010121287405185392011_" gradientUnits="userSpaceOnUse" x1="133.86" y1="111.3777" x2="216.651" y2="111.3777" gradientTransform="matrix(1 0 0 -1 0 281.1028)">
	<stop  offset="0" style="stop-color:#E94E1B"/>
	<stop  offset="1" style="stop-color:#8E181B"/>
</linearGradient>
<path style="fill:url(#SVGID_00000111184242674174763320000010121287405185392011_);" d="M190.6,222c-1.6,1.4-2.8,2.5-4.2,3.6
	c-11.2-8.1-22.1-16-33-23.9c-4.1,5-3.9,6.8,0.7,10.2c8.2,6,16.4,11.9,24.9,18.1c-2.8,3-5.2,3.3-8.4,0.9
	c-7.1-5.5-14.5-10.6-21.7-15.9c-4,5.8-3.9,6.8,1.1,10.4c4.9,3.6,9.8,7.2,15,11c-3.4,2.3-6,2.9-9.1,0.2c-3.5-3-7.5-5.5-11.2-8.2
	c-4.1,4.9-3.9,6.1,2.9,12.3h-13.7c15.3-47.3,30.6-94.3,46.1-142.1c3.4,2.4,6.3,4.5,9.3,6.6c-3,2.8-6.1,4.9-8,7.7
	c-1.7,2.6-2.1,6.1-3.1,9.2c0.3,0.2,0.6,0.4,0.9,0.6c4.3-3.1,8.7-6.1,12.9-9.4c3.2-2.5,5.1-1.8,6.5,2.1c-6,4.4-11.7,9.2-18,12.9
	c-6.1,3.6-8,9-9.5,16.6c11.3-8.1,21.8-15.6,32.6-23.4c1,1.6,1.9,2.8,2.9,4.5c-13.1,9.6-25.9,19-38.7,28.4c4.6,5.7,5.3,5.8,10.6,1.9
	c8.8-6.4,17.6-12.9,26.4-19.3c1.6-1.2,3.4-2.2,5-3.3c2.5,2.9,2.5,4.9-0.8,7.2c-8.7,6-17.2,12.4-25.8,18.7c-1.4,1-2.7,2.1-4,3.2
	c4.2,5.5,5.2,5.7,10.1,2.1c7.1-5.1,14.1-10.2,21.2-15.4c1.1-0.8,2.4-1.5,3.6-2.2c2.2,3.6,1.2,5.8-1.8,7.9
	c-7.3,5.2-14.5,10.5-21.8,15.8c4.3,5.6,5.3,5.7,10.2,2.1c4.9-3.6,9.8-7.1,15.2-10.9c0.9,3.9,0.8,6.5-2.6,8.7
	c-4,2.6-7.7,5.6-11.5,8.5c2.9,3.4,7.2,3.7,13.1,0.7c-1.4,4.6-2.6,8.6-4.1,13.6c-15.3-11.1-30-21.8-44.7-32.4c-4,5.5-3.8,6.9,1,10.3
	c12.1,8.8,24.2,17.6,36.3,26.4c1.2,0.9,2.2,1.8,3.6,2.9c-0.8,1.4-1.6,2.8-2.6,4.6c-14.5-10.5-28.7-20.8-42.9-31
	c-3.8,6.6-3.7,6.9,1.7,10.9c12,8.7,23.9,17.4,36.4,26.5c-1.1,1.5-2.1,2.8-3.3,4.4c-13.2-9.5-26.1-18.9-39-28.2
	c-4,6.1-3.9,6.8,1.5,10.7c9.3,6.8,18.6,13.5,27.9,20.2C188.1,220,189.2,220.9,190.6,222L190.6,222z"/>
<linearGradient id="SVGID_00000078024696218170854420000003815601895030252701_" gradientUnits="userSpaceOnUse" x1="62.7" y1="134.6278" x2="101.37" y2="134.6278" gradientTransform="matrix(1 0 0 -1 0 281.1028)">
	<stop  offset="0" style="stop-color:#E94E1B"/>
	<stop  offset="1" style="stop-color:#8E181B"/>
</linearGradient>
<path style="fill:url(#SVGID_00000078024696218170854420000003815601895030252701_);" d="M68.8,195.1c-1.5-4.6-3-9.3-4.8-14.7
	c1.8,0.6,2.9,1,4,1.4c2.2-4.4,1.5-7.9-2.1-10.7c-2.4-1.8-3.4-4.7-3-8.7c3.2,2.1,6.1,4,9.1,6c3.9-5.9,3.8-6.6-1.6-10.5
	c-1.2-0.9-2.3-1.7-3.5-2.6c-2.5-1.9-3.2-4.6-2-8.1c3.8,2.7,7.6,5.3,11.3,7.9c4-5.8,3.9-6.8-1.4-10.6c-2.6-1.9-5.8-4-8.6-6
	c0.7-1.6,2-2.9,2.8-4.9c4.1,2.9,7.8,5.5,11.6,8.1c4-6.2,3.9-6.7-1.4-10.6c-1.1-0.8-2.1-1.6-3.2-2.3c-3.5-2-3.6-4.1-0.1-6.8
	c3,2,6,4.1,10.3,7.1c0.3-3.6,1.5-6.6,0.6-8.6c-1-2.2-4-3.5-6.5-5.4c1.3-1.4,2.1-3,3.2-4.2c2.1,1.2,4.2,2.8,6.3,4.1
	c1.4-3.3,4.2-6.1,0.1-9.8c3.7-2.6,7.2-5,10.7-7.5c0.3,0.2,0.6,0.5,0.8,0.7c-10.4,32.2-20.9,64.5-31.3,96.7
	C69.6,195.1,69.2,195.1,68.8,195.1L68.8,195.1z"/>
<linearGradient id="SVGID_00000075875953021796109660000008256341857280119467_" gradientUnits="userSpaceOnUse" x1="107.81" y1="118.1874" x2="160.16" y2="118.1874" gradientTransform="matrix(1 0 0 -1 0 281.1028)">
	<stop  offset="0" style="stop-color:#E94E1B"/>
	<stop  offset="1" style="stop-color:#8E181B"/>
</linearGradient>
<path style="fill:url(#SVGID_00000075875953021796109660000008256341857280119467_);" d="M160.2,90.8
	c-15.7,48.5-31.4,96.9-47.3,145.7c-1.9-0.8-3.3-1.3-5.1-2c3.1-9.8,6.2-19.3,9.2-28.8c12.1-37.4,24.3-74.8,36.4-112.2
	C154.5,90.2,155.6,87.6,160.2,90.8z"/>
<linearGradient id="SVGID_00000016039239127204224590000009630164305221035942_" gradientUnits="userSpaceOnUse" x1="96.5805" y1="122.296" x2="147.02" y2="122.296" gradientTransform="matrix(1 0 0 -1 0 281.1028)">
	<stop  offset="0" style="stop-color:#E94E1B"/>
	<stop  offset="1" style="stop-color:#8E181B"/>
</linearGradient>
<path style="fill:url(#SVGID_00000016039239127204224590000009630164305221035942_);" d="M147,88c-15.5,47.6-30.8,94.9-46.2,142.3
	c-4.3-0.9-4.9-2.8-3.7-6.5c14.5-44.4,28.9-88.9,43.2-133.3C141.5,86.8,143.6,87,147,88z"/>
<linearGradient id="SVGID_00000146470358570879900910000013576581312540592273_" gradientUnits="userSpaceOnUse" x1="85.5275" y1="126.1233" x2="132.86" y2="126.1233" gradientTransform="matrix(1 0 0 -1 0 281.1028)">
	<stop  offset="0" style="stop-color:#E94E1B"/>
	<stop  offset="1" style="stop-color:#8E181B"/>
</linearGradient>
<path style="fill:url(#SVGID_00000146470358570879900910000013576581312540592273_);" d="M89.4,222c-3.5-1.7-4.7-3.6-3.4-7.4
	c13.3-40.7,26.5-81.5,39.6-122.2c1.1-3.5,2.9-5.1,7.2-4.2C118.4,132.8,103.9,177.3,89.4,222L89.4,222z"/>
<linearGradient id="SVGID_00000153703220330057448720000008749356910760972725_" gradientUnits="userSpaceOnUse" x1="75.4465" y1="130.034" x2="117.9" y2="130.034" gradientTransform="matrix(1 0 0 -1 0 281.1028)">
	<stop  offset="0" style="stop-color:#E94E1B"/>
	<stop  offset="1" style="stop-color:#8E181B"/>
</linearGradient>
<path style="fill:url(#SVGID_00000153703220330057448720000008749356910760972725_);" d="M117.9,91c-13,40.1-25.9,79.9-39,120.1
	c-3-2.9-4.3-5.2-2.9-9.3c11.5-34.7,22.7-69.5,33.9-104.3C111.1,93.9,112.6,90.9,117.9,91z"/>
<linearGradient id="SVGID_00000137829193814337444650000002103306165992365759_" gradientUnits="userSpaceOnUse" x1="210.23" y1="18.0828" x2="210.62" y2="18.0828" gradientTransform="matrix(1 0 0 -1 0 281.1028)">
	<stop  offset="0" style="stop-color:#E94E1B"/>
	<stop  offset="1" style="stop-color:#8E181B"/>
</linearGradient>
<path style="fill:url(#SVGID_00000137829193814337444650000002103306165992365759_);" d="M210.2,263c0.1,0,0.3,0,0.4,0"/>
</svg>
