<?xml version="1.0" encoding="UTF-8"?><svg id="Logo" xmlns="http://www.w3.org/2000/svg" xmlns:xlink="http://www.w3.org/1999/xlink" viewBox="0 0 936.67 541.24"><defs><style>.cls-1{fill:url(#Nieuwe_verloopstaal_1-3);}.cls-2{fill:url(#Nieuwe_verloopstaal_1-6);}.cls-3,.cls-4{font-size:61.64px;}.cls-3,.cls-5,.cls-6{fill:#e94e1b;font-family:Microsoft-Yi-Baiti, 'Microsoft Yi Baiti';}.cls-7,.cls-6{font-style:italic;}.cls-8{fill:#1d1d1b;stroke:url(#Nieuwe_verloopstaal_1);stroke-width:3px;}.cls-8,.cls-4{stroke-miterlimit:10;}.cls-9{fill:url(#Nieuwe_verloopstaal_1-2);}.cls-4{font-family:LucidaHandwriting-Italic, 'Lucida Handwriting';stroke:#f39200;stroke-width:.5px;}.cls-10{fill:url(#Nieuwe_verloopstaal_1-8);}.cls-11{fill:url(#Nieuwe_verloopstaal_1-7);}.cls-12{fill:url(#Nieuwe_verloopstaal_1-4);}.cls-13{fill:url(#Nieuwe_verloopstaal_1-5);}.cls-5{font-size:56px;}.cls-6{font-size:55px;}</style><linearGradient id="Nieuwe_verloopstaal_1" x1="0" y1="376.02" x2="267.69" y2="376.02" gradientUnits="userSpaceOnUse"><stop offset="0" stop-color="#e94e1b"/><stop offset="1" stop-color="#8e181b"/></linearGradient><linearGradient id="Nieuwe_verloopstaal_1-2" x1="133.84" y1="380.53" x2="216.62" y2="380.53" xlink:href="#Nieuwe_verloopstaal_1"/><linearGradient id="Nieuwe_verloopstaal_1-3" x1="62.7" y1="357.29" x2="101.37" y2="357.29" xlink:href="#Nieuwe_verloopstaal_1"/><linearGradient id="Nieuwe_verloopstaal_1-4" x1="107.82" y1="373.72" x2="160.16" y2="373.72" xlink:href="#Nieuwe_verloopstaal_1"/><linearGradient id="Nieuwe_verloopstaal_1-5" x1="96.58" y1="369.61" x2="147.02" y2="369.61" xlink:href="#Nieuwe_verloopstaal_1"/><linearGradient id="Nieuwe_verloopstaal_1-6" x1="85.53" y1="365.77" x2="132.87" y2="365.77" xlink:href="#Nieuwe_verloopstaal_1"/><linearGradient id="Nieuwe_verloopstaal_1-7" x1="75.45" y1="361.87" x2="117.9" y2="361.87" xlink:href="#Nieuwe_verloopstaal_1"/><linearGradient id="Nieuwe_verloopstaal_1-8" x1="210.23" y1="473.81" x2="210.62" y2="473.81" xlink:href="#Nieuwe_verloopstaal_1"/></defs><rect class="cls-8" x="1.5" y="212.3" width="264.69" height="327.44"/><text class="cls-7" transform="translate(69.25 269.74)"><tspan class="cls-5" x="0" y="0">Broke</tspan><tspan class="cls-3" x="109.65" y="0">n</tspan><tspan class="cls-4" x="135.23" y="0"> </tspan></text><text class="cls-6" transform="translate(64.16 511.63)"><tspan x="0" y="0">Records</tspan></text><path class="cls-9" d="m190.55,432.82c-1.57,1.36-2.84,2.46-4.18,3.63-11.16-8.09-22.07-15.99-32.96-23.88-4.13,4.95-3.95,6.83.69,10.18,8.23,5.95,16.45,11.92,24.95,18.07-2.79,3.02-5.19,3.34-8.38.9-7.12-5.45-14.47-10.6-21.72-15.88-4,5.76-3.85,6.83,1.06,10.4,4.91,3.58,9.79,7.18,15.04,11.04-3.35,2.3-5.99,2.88-9.15.2-3.52-2.98-7.46-5.47-11.19-8.16-4.11,4.87-3.86,6.06,2.87,12.28h-13.72c15.34-47.28,30.59-94.29,46.12-142.15,3.37,2.4,6.31,4.49,9.33,6.64-2.99,2.79-6.12,4.86-8.01,7.74-1.72,2.62-2.1,6.12-3.08,9.23.32.22.63.43.95.65,4.32-3.11,8.74-6.08,12.91-9.37,3.22-2.54,5.08-1.79,6.53,2.14-5.98,4.35-11.67,9.18-18,12.92-6.11,3.61-8.02,9.04-9.46,16.65,11.32-8.13,21.78-15.64,32.6-23.41,1.03,1.57,1.85,2.83,2.95,4.51-13.06,9.57-25.89,18.96-38.72,28.36,4.63,5.67,5.29,5.77,10.64,1.87,8.8-6.42,17.59-12.87,26.4-19.27,1.62-1.18,3.35-2.22,5.01-3.32,2.49,2.93,2.49,4.94-.79,7.2-8.72,6.03-17.2,12.41-25.76,18.67-1.39,1.01-2.7,2.13-4.04,3.2,4.24,5.51,5.16,5.67,10.11,2.06,7.05-5.13,14.1-10.25,21.17-15.35,1.14-.82,2.38-1.5,3.57-2.24,2.24,3.57,1.18,5.79-1.79,7.88-7.34,5.16-14.52,10.54-21.77,15.84,4.34,5.58,5.26,5.72,10.21,2.13,4.9-3.56,9.84-7.08,15.21-10.93.95,3.93.78,6.54-2.56,8.67-4,2.56-7.66,5.64-11.49,8.51q4.31,5.17,13.08.7c-1.38,4.61-2.59,8.65-4.06,13.59-15.3-11.09-30.02-21.76-44.74-32.42-3.98,5.46-3.79,6.86,1,10.34,12.11,8.79,24.2,17.6,36.29,26.42,1.17.85,2.25,1.82,3.59,2.91-.82,1.43-1.57,2.76-2.61,4.58-14.51-10.5-28.68-20.76-42.89-31.04-3.76,6.63-3.71,6.9,1.72,10.86,11.97,8.72,23.94,17.43,36.37,26.48-1.12,1.48-2.1,2.77-3.3,4.36-13.17-9.53-26.06-18.85-38.97-28.18-3.97,6.1-3.87,6.78,1.5,10.69,9.27,6.76,18.57,13.5,27.85,20.25,1.14.83,2.23,1.73,3.66,2.85Z"/><path class="cls-1" d="m68.82,405.94c-1.5-4.65-3.01-9.3-4.75-14.68,1.81.64,2.9,1.02,4,1.41q3.31-6.57-2.11-10.67-3.56-2.69-2.96-8.68c3.16,2.08,6.11,4.02,9.05,5.96,3.92-5.93,3.8-6.6-1.55-10.52-1.17-.86-2.34-1.72-3.51-2.59q-3.75-2.82-2.02-8.07c3.85,2.68,7.59,5.28,11.31,7.87,4.04-5.84,3.89-6.76-1.38-10.57-2.58-1.86-5.84-3.95-8.55-5.98.65-1.64,1.96-2.91,2.76-4.92,4.1,2.87,7.84,5.48,11.58,8.1,4-6.19,3.92-6.73-1.45-10.65-1.06-.77-2.07-1.62-3.2-2.26-3.51-1.99-3.63-4.14-.14-6.77,2.96,2.03,6,4.12,10.34,7.09.35-3.57,1.54-6.59.6-8.62-1.02-2.19-4.03-3.45-6.49-5.36,1.32-1.44,2.08-3.04,3.19-4.25,2.08,1.25,4.18,2.82,6.27,4.08,1.39-3.33,4.18-6.15.08-9.78,3.73-2.62,7.19-5.05,10.65-7.48.28.23.56.45.84.68-10.45,32.22-20.89,64.45-31.34,96.67-.4,0-.81-.01-1.21-.02Z"/><path class="cls-12" d="m160.16,301.6c-15.74,48.5-31.45,96.9-47.3,145.72-1.87-.76-3.27-1.33-5.05-2.04,3.14-9.81,6.16-19.32,9.23-28.8,12.12-37.41,24.28-74.8,36.38-112.22,1.07-3.3,2.2-5.91,6.74-2.66Z"/><path class="cls-13" d="m147.02,298.78c-15.47,47.65-30.82,94.92-46.19,142.27-4.28-.89-4.93-2.75-3.69-6.55,14.52-44.41,28.89-88.86,43.21-133.34,1.15-3.56,3.29-3.36,6.67-2.38Z"/><path class="cls-2" d="m89.44,432.8c-3.49-1.7-4.67-3.6-3.44-7.37,13.32-40.71,26.5-81.46,39.61-122.23,1.13-3.53,2.91-5.12,7.25-4.19-14.48,44.61-28.92,89.11-43.43,133.8Z"/><path class="cls-11" d="m117.9,301.82c-13.02,40.1-25.93,79.87-38.99,120.1-3.01-2.85-4.27-5.22-2.93-9.26,11.46-34.7,22.7-69.48,33.92-104.26,1.19-3.69,2.67-6.68,8-6.58Z"/><path class="cls-10" d="m210.23,473.84c.13-.01.26-.03.39-.04"/></svg>