<?xml version="1.0" encoding="utf-8"?>
<!-- Generator: Adobe Illustrator 27.5.0, SVG Export Plug-In . SVG Version: 6.00 Build 0)  -->
<svg version="1.1" id="Logo" xmlns="http://www.w3.org/2000/svg" xmlns:xlink="http://www.w3.org/1999/xlink" x="0px" y="0px"
	 viewBox="0 0 318.6 330.4" style="enable-background:new 0 0 318.6 330.4;" xml:space="preserve">
<style type="text/css">
	.st0{fill:#1D1D1B;stroke:url(#SVGID_1_);stroke-width:3;stroke-miterlimit:10;}
	.st1{enable-background:new    ;}
	.st2{fill:#E94E1B;}
	.st3{fill:url(#SVGID_00000178189285499374476440000013523407664041556376_);}
	.st4{fill:url(#SVGID_00000013173382123172845290000002157609372822920355_);}
	.st5{fill:url(#SVGID_00000106865507541796104450000006486930814248034737_);}
	.st6{fill:url(#SVGID_00000024681200040481798930000010294128873098460850_);}
	.st7{fill:url(#SVGID_00000173157875214655905800000007849700052077152931_);}
	.st8{fill:url(#SVGID_00000129169647609900098370000012802004183142854554_);}
	.st9{fill:url(#SVGID_00000043447200658824282080000002630029470023400349_);}
</style>
<g>
	
		<linearGradient id="SVGID_1_" gradientUnits="userSpaceOnUse" x1="28.4331" y1="114.0484" x2="296.1231" y2="114.0484" gradientTransform="matrix(1 0 0 -1 0 281.1028)">
		<stop  offset="0" style="stop-color:#E94E1B"/>
		<stop  offset="1" style="stop-color:#8E181B"/>
	</linearGradient>
	<rect x="29.9" y="3.3" class="st0" width="264.7" height="327.4"/>
	<g class="st1">
		<path class="st2" d="M123.3,52.4c0,2.7-0.9,4.8-2.7,6.2c-1.8,1.4-4.5,2.2-8.1,2.2h-10.9V30.8h10.8c3,0,5.3,0.6,6.9,1.7
			c1.6,1.1,2.4,3,2.4,5.5c0,0.7-0.1,1.4-0.2,2.1s-0.4,1.4-0.8,2.1c-0.4,0.6-0.9,1.2-1.5,1.7c-0.6,0.5-1.5,0.9-2.5,1.1
			c1.4,0.1,2.5,0.4,3.4,0.9c0.8,0.5,1.5,1.1,2,1.8c0.5,0.7,0.8,1.5,0.9,2.3C123.3,50.8,123.3,51.6,123.3,52.4z M103.8,44h8
			c2.7,0,4.6-0.4,5.9-1.3c1.3-0.9,1.9-2.3,1.9-4.3c0-1.8-0.6-3.2-1.8-4.1c-1.2-0.9-3-1.3-5.6-1.3l-8.4,0V44z M103.8,58.6h8.7
			c5.7,0,8.5-2.1,8.5-6.2c0-1.1-0.1-2-0.4-2.8c-0.3-0.8-0.8-1.4-1.5-1.9c-0.7-0.5-1.6-0.9-2.8-1.1s-2.6-0.4-4.4-0.4h-8.1V58.6z"/>
		<path class="st2" d="M139.3,41.3c-0.2,0-0.4-0.1-0.7-0.1c-0.2,0-0.5,0-0.8,0c-0.6,0-1.2,0.1-1.8,0.4c-0.6,0.3-1.1,0.6-1.7,1
			s-1,0.9-1.5,1.4s-0.8,1.1-1.2,1.6v15.2h-2.2V39.6h2.2v2.9c0.6-0.7,1.2-1.3,1.8-1.8c0.6-0.5,1.2-0.8,1.8-1.1
			c0.6-0.3,1.1-0.4,1.7-0.5s1-0.1,1.4-0.1c0.1,0,0.3,0,0.4,0c0.1,0,0.3,0,0.4,0V41.3z"/>
		<path class="st2" d="M151.6,39c1.4,0,2.7,0.3,3.9,0.8c1.2,0.5,2.2,1.2,3,2.2s1.4,2.1,1.9,3.5c0.4,1.4,0.7,2.9,0.7,4.7
			c0,1.8-0.2,3.3-0.7,4.7c-0.4,1.4-1.1,2.6-1.9,3.5s-1.8,1.7-3,2.2s-2.5,0.8-3.9,0.8s-2.7-0.2-3.9-0.7s-2.1-1.2-3-2.2
			s-1.5-2.1-1.9-3.5c-0.5-1.4-0.7-3-0.7-4.8c0-1.8,0.2-3.3,0.7-4.7c0.4-1.4,1.1-2.5,1.9-3.5c0.8-0.9,1.8-1.7,3-2.2
			C148.9,39.3,150.2,39,151.6,39z M151.6,59.1c1.1,0,2.1-0.2,2.9-0.6c0.9-0.4,1.6-0.9,2.3-1.7c0.6-0.8,1.1-1.7,1.5-2.8
			s0.5-2.4,0.5-3.9c0-1.5-0.2-2.8-0.5-3.9s-0.9-2.1-1.5-2.8s-1.4-1.3-2.3-1.7c-0.9-0.4-1.9-0.6-2.9-0.6c-1.1,0-2.1,0.2-3,0.6
			c-0.9,0.4-1.6,0.9-2.3,1.7s-1.1,1.7-1.5,2.8s-0.5,2.4-0.5,3.9c0,1.5,0.2,2.8,0.5,3.9s0.8,2.1,1.5,2.8c0.6,0.8,1.4,1.3,2.3,1.7
			C149.5,58.9,150.5,59.1,151.6,59.1z"/>
		<path class="st2" d="M182.9,60.8h-2.7l-7.7-11.9l-3.5,3.4v8.6h-2.2V30.8h2.2v18.6l10.2-9.9h2.8l-8,7.8L182.9,60.8z"/>
		<path class="st2" d="M196.1,61.3c-1.5,0-2.8-0.3-4-0.8s-2.2-1.2-3.1-2.2s-1.5-2.1-2-3.5c-0.5-1.4-0.7-3-0.7-4.7
			c0-1.7,0.2-3.3,0.7-4.6c0.5-1.4,1.1-2.5,1.9-3.5s1.8-1.7,3-2.2c1.1-0.5,2.4-0.8,3.8-0.8c1.4,0,2.7,0.3,3.9,0.8
			c1.2,0.5,2.2,1.2,3,2.2s1.4,2.1,1.9,3.5c0.4,1.4,0.7,2.9,0.7,4.7v0.5h-16.7c0.1,1.4,0.4,2.7,0.8,3.7c0.4,1.1,1,1.9,1.6,2.6
			c0.7,0.7,1.5,1.2,2.3,1.6c0.9,0.3,1.8,0.5,2.9,0.5c0.7,0,1.5-0.1,2.2-0.3c0.7-0.2,1.4-0.4,2-0.8c0.6-0.3,1.1-0.8,1.5-1.3
			c0.4-0.5,0.6-1.1,0.7-1.8h2.2c-0.2,1-0.6,1.9-1.1,2.7c-0.5,0.8-1.1,1.4-1.9,2c-0.7,0.5-1.6,0.9-2.5,1.2S197.2,61.3,196.1,61.3z
			 M202.9,48.5c-0.4-2.4-1.2-4.2-2.5-5.4s-2.9-1.8-4.7-1.8c-0.9,0-1.8,0.1-2.6,0.4c-0.8,0.3-1.5,0.7-2.1,1.3s-1.2,1.4-1.6,2.3
			c-0.4,0.9-0.7,2-0.9,3.2H202.9z"/>
		<path class="st2" d="M212.9,42.7c0.7-0.8,1.4-1.5,2.1-2s1.3-0.9,2-1.1c0.6-0.3,1.3-0.4,1.8-0.5c0.6-0.1,1.1-0.1,1.6-0.1
			c4.4,0,6.5,2.6,6.5,7.7v14h-2.2V46.9c0-1-0.1-1.8-0.3-2.6c-0.2-0.7-0.5-1.3-0.8-1.8s-0.9-0.8-1.5-1c-0.6-0.2-1.4-0.3-2.3-0.3
			c-1.2,0-2.4,0.4-3.5,1.1s-2.3,1.7-3.4,3v15.5h-2.2V39.6h2.2V42.7z"/>
	</g>
	<g class="st1">
	</g>
	<g class="st1">
		<path class="st2" d="M120,302.7h-2.4l-2.9-7.8c-0.3-0.8-0.6-1.5-1-2.1c-0.3-0.7-0.8-1.2-1.2-1.7c-0.5-0.5-1-0.9-1.6-1.2
			c-0.6-0.3-1.3-0.4-2.1-0.4H98.6v13.3h-2.1v-29.4h13.2c1.2,0,2.4,0.1,3.6,0.3c1.2,0.2,2.2,0.6,3.1,1.2c0.9,0.6,1.6,1.4,2.2,2.4
			s0.8,2.3,0.8,3.9c0,1-0.1,1.9-0.4,2.8c-0.2,0.9-0.6,1.6-1.1,2.3c-0.5,0.7-1.1,1.2-1.9,1.7c-0.8,0.5-1.7,0.8-2.7,1
			c0.6,0.4,1,0.8,1.4,1.2c0.4,0.4,0.7,0.8,0.9,1.3c0.3,0.4,0.5,0.9,0.7,1.5c0.2,0.5,0.4,1.2,0.7,1.9L120,302.7z M98.6,287.2h10.2
			c1.5,0,2.7-0.1,3.7-0.3c1-0.2,1.9-0.6,2.6-1.1c0.7-0.5,1.2-1.1,1.5-1.9c0.3-0.8,0.5-1.8,0.5-2.9c0-2-0.6-3.5-1.9-4.3
			c-1.3-0.9-3.2-1.3-5.7-1.3H98.6V287.2z"/>
		<path class="st2" d="M134.5,303.2c-1.5,0-2.8-0.2-3.9-0.7s-2.2-1.2-3-2.1c-0.8-0.9-1.5-2.1-2-3.5s-0.7-2.9-0.7-4.6
			c0-1.7,0.2-3.2,0.7-4.6c0.4-1.4,1.1-2.5,1.9-3.4c0.8-0.9,1.8-1.7,2.9-2.2c1.1-0.5,2.4-0.8,3.8-0.8c1.4,0,2.7,0.2,3.8,0.8
			c1.1,0.5,2.1,1.2,2.9,2.2c0.8,0.9,1.4,2.1,1.9,3.4c0.4,1.4,0.6,2.9,0.6,4.6v0.5H127c0.1,1.4,0.4,2.6,0.8,3.7
			c0.4,1,0.9,1.9,1.6,2.6c0.7,0.7,1.4,1.2,2.3,1.5c0.9,0.3,1.8,0.5,2.8,0.5c0.7,0,1.4-0.1,2.1-0.3s1.4-0.4,1.9-0.8s1.1-0.8,1.5-1.3
			c0.4-0.5,0.6-1.1,0.7-1.7h2.1c-0.2,1-0.5,1.9-1,2.6c-0.5,0.8-1.1,1.4-1.9,1.9s-1.6,0.9-2.5,1.2
			C136.6,303.1,135.6,303.2,134.5,303.2z M141.2,290.6c-0.4-2.4-1.2-4.2-2.4-5.3c-1.3-1.2-2.8-1.8-4.7-1.8c-0.9,0-1.8,0.1-2.6,0.4
			c-0.8,0.3-1.5,0.7-2.1,1.3c-0.6,0.6-1.1,1.3-1.6,2.2c-0.4,0.9-0.7,1.9-0.9,3.1H141.2z"/>
		<path class="st2" d="M157.1,303.2c-1.4,0-2.6-0.2-3.8-0.7c-1.1-0.5-2.1-1.2-2.9-2.1c-0.8-0.9-1.4-2.1-1.9-3.4
			c-0.4-1.4-0.7-2.9-0.7-4.7c0-1.7,0.2-3.3,0.7-4.6s1.1-2.5,1.9-3.4s1.8-1.6,2.9-2.1c1.1-0.5,2.4-0.7,3.8-0.7c1,0,1.9,0.1,2.8,0.4
			c0.9,0.3,1.6,0.7,2.3,1.2c0.7,0.5,1.2,1.2,1.7,1.9c0.5,0.8,0.8,1.6,1,2.6h-2.1c-0.1-0.6-0.3-1.2-0.6-1.7c-0.3-0.5-0.7-0.9-1.2-1.3
			c-0.5-0.3-1.1-0.6-1.7-0.8c-0.7-0.2-1.4-0.3-2.1-0.3c-1.1,0-2,0.2-2.9,0.5c-0.9,0.4-1.6,0.9-2.3,1.7c-0.6,0.7-1.1,1.7-1.5,2.8
			c-0.3,1.1-0.5,2.4-0.5,3.8c0,1.5,0.2,2.8,0.5,3.9c0.3,1.1,0.8,2,1.5,2.8c0.6,0.7,1.4,1.3,2.3,1.7c0.9,0.4,1.8,0.6,2.9,0.6
			c0.7,0,1.4-0.1,2-0.3s1.2-0.4,1.7-0.8c0.5-0.3,0.9-0.7,1.3-1.2s0.6-1.1,0.6-1.7h2.1c-0.2,1-0.5,1.9-1,2.6c-0.5,0.8-1,1.4-1.7,1.9
			c-0.7,0.5-1.4,0.9-2.3,1.2C159,303.1,158.1,303.2,157.1,303.2z"/>
		<path class="st2" d="M177.5,281.3c1.4,0,2.7,0.2,3.8,0.7s2.1,1.2,2.9,2.1c0.8,0.9,1.4,2.1,1.9,3.4s0.6,2.9,0.6,4.6
			c0,1.7-0.2,3.3-0.7,4.6c-0.4,1.4-1.1,2.5-1.9,3.5c-0.8,0.9-1.8,1.7-2.9,2.1c-1.1,0.5-2.4,0.7-3.8,0.7s-2.7-0.2-3.8-0.7
			c-1.1-0.5-2.1-1.2-2.9-2.1c-0.8-0.9-1.4-2.1-1.9-3.5c-0.4-1.4-0.7-2.9-0.7-4.7c0-1.7,0.2-3.3,0.7-4.6c0.4-1.4,1.1-2.5,1.9-3.4
			s1.8-1.6,2.9-2.1C174.8,281.6,176.1,281.3,177.5,281.3z M177.5,301.1c1.1,0,2-0.2,2.9-0.6c0.9-0.4,1.6-0.9,2.2-1.7
			c0.6-0.7,1.1-1.7,1.5-2.8c0.3-1.1,0.5-2.4,0.5-3.9c0-1.4-0.2-2.7-0.5-3.8c-0.3-1.1-0.8-2-1.5-2.7c-0.6-0.7-1.4-1.3-2.2-1.6
			c-0.9-0.4-1.8-0.5-2.9-0.5c-1.1,0-2,0.2-2.9,0.5c-0.9,0.4-1.6,0.9-2.2,1.6c-0.6,0.7-1.1,1.6-1.5,2.7c-0.3,1.1-0.5,2.4-0.5,3.8
			c0,1.5,0.2,2.8,0.5,3.9c0.3,1.1,0.8,2,1.5,2.8c0.6,0.7,1.4,1.3,2.2,1.7C175.4,300.9,176.4,301.1,177.5,301.1z"/>
		<path class="st2" d="M201.9,283.5c-0.2,0-0.4-0.1-0.6-0.1c-0.2,0-0.5,0-0.8,0c-0.6,0-1.2,0.1-1.8,0.4c-0.6,0.3-1.1,0.6-1.6,1
			c-0.5,0.4-1,0.9-1.5,1.4c-0.4,0.5-0.8,1-1.2,1.6v14.9h-2.1v-20.8h2.1v2.9c0.6-0.7,1.2-1.3,1.8-1.7c0.6-0.4,1.2-0.8,1.7-1
			c0.6-0.3,1.1-0.4,1.6-0.5c0.5-0.1,1-0.1,1.4-0.1c0.1,0,0.3,0,0.4,0c0.1,0,0.3,0,0.4,0V283.5z"/>
		<path class="st2" d="M219.7,299.8c-0.6,0.8-1.3,1.4-1.9,1.8c-0.6,0.4-1.2,0.8-1.8,1c-0.6,0.2-1.1,0.4-1.7,0.5
			c-0.5,0.1-1.1,0.1-1.6,0.1c-1.3,0-2.5-0.3-3.5-0.8c-1-0.5-1.8-1.2-2.5-2.2c-0.7-0.9-1.2-2.1-1.5-3.4c-0.3-1.3-0.5-2.8-0.5-4.4
			c0-1.7,0.2-3.3,0.6-4.6c0.4-1.4,1-2.5,1.7-3.5c0.7-1,1.6-1.7,2.6-2.2c1-0.5,2.1-0.8,3.3-0.8c0.5,0,1,0,1.5,0.1s1.1,0.2,1.6,0.3
			s1.1,0.4,1.7,0.8c0.6,0.3,1.2,0.8,1.9,1.4v-10.6h2.1v29.4h-2.1V299.8z M219.7,286.5c-1-1-2-1.8-3-2.3c-1-0.5-2.2-0.8-3.5-0.8
			c-1,0-1.8,0.2-2.6,0.5c-0.8,0.4-1.4,0.9-2,1.7c-0.6,0.7-1,1.7-1.3,2.8c-0.3,1.1-0.5,2.4-0.5,3.9c0,2.8,0.5,5,1.6,6.4
			s2.6,2.2,4.6,2.2c1.3,0,2.5-0.4,3.5-1.1s2.1-1.8,3.1-3.2V286.5z"/>
		<path class="st2" d="M235.8,303.2c-5.1,0-7.9-2-8.4-6.2h2.2c0.2,1.3,0.7,2.2,1.7,2.9c1,0.7,2.5,1.1,4.4,1.1c0.9,0,1.8-0.1,2.5-0.3
			c0.7-0.2,1.3-0.5,1.8-0.8c0.5-0.3,0.8-0.8,1.1-1.2c0.2-0.5,0.3-1,0.3-1.6c0-0.6-0.1-1-0.3-1.4c-0.2-0.4-0.5-0.8-1-1.1
			c-0.5-0.3-1.2-0.6-2-0.9c-0.9-0.3-1.9-0.6-3.3-1c-1.1-0.3-2.1-0.6-3-0.9c-0.9-0.3-1.6-0.7-2.2-1.1c-0.6-0.4-1.1-1-1.4-1.6
			s-0.5-1.4-0.5-2.4c0-0.8,0.2-1.6,0.5-2.2c0.3-0.7,0.8-1.2,1.5-1.7c0.6-0.5,1.4-0.8,2.3-1.1c0.9-0.2,1.9-0.4,3-0.4
			c2.5,0,4.3,0.4,5.6,1.2c1.3,0.8,2,2.1,2.1,3.9h-2.2c-0.1-1-0.6-1.8-1.5-2.3c-0.9-0.5-2.1-0.7-3.8-0.7c-0.8,0-1.5,0.1-2.2,0.2
			c-0.7,0.1-1.2,0.4-1.7,0.6c-0.5,0.3-0.8,0.6-1.1,1c-0.3,0.4-0.4,0.9-0.4,1.4c0,0.3,0.1,0.6,0.2,0.9s0.4,0.7,0.8,1
			c0.4,0.3,1.1,0.7,2,1c0.9,0.3,2.1,0.7,3.6,1.1c1.2,0.3,2.2,0.6,3.1,1c0.9,0.3,1.6,0.7,2.2,1.2c0.6,0.5,1,1,1.3,1.6
			c0.3,0.6,0.4,1.3,0.4,2.1c0,0.9-0.2,1.8-0.5,2.6c-0.4,0.8-0.9,1.5-1.6,2.1c-0.7,0.6-1.5,1-2.5,1.4S237,303.2,235.8,303.2z"/>
	</g>
	
		<linearGradient id="SVGID_00000047772749909461041230000012608460555601417375_" gradientUnits="userSpaceOnUse" x1="162.2931" y1="109.5433" x2="245.0841" y2="109.5433" gradientTransform="matrix(1 0 0 -1 0 281.1028)">
		<stop  offset="0" style="stop-color:#E94E1B"/>
		<stop  offset="1" style="stop-color:#8E181B"/>
	</linearGradient>
	<path style="fill:url(#SVGID_00000047772749909461041230000012608460555601417375_);" d="M219,223.9c-1.6,1.4-2.8,2.5-4.2,3.6
		c-11.2-8.1-22.1-16-33-23.9c-4.1,5-3.9,6.8,0.7,10.2c8.2,6,16.4,11.9,24.9,18.1c-2.8,3-5.2,3.3-8.4,0.9
		c-7.1-5.5-14.5-10.6-21.7-15.9c-4,5.8-3.9,6.8,1.1,10.4c4.9,3.6,9.8,7.2,15,11c-3.4,2.3-6,2.9-9.1,0.2c-3.5-3-7.5-5.5-11.2-8.2
		c-4.1,4.9-3.9,6.1,2.9,12.3h-13.7c15.3-47.3,30.6-94.3,46.1-142.1c3.4,2.4,6.3,4.5,9.3,6.6c-3,2.8-6.1,4.9-8,7.7
		c-1.7,2.6-2.1,6.1-3.1,9.2c0.3,0.2,0.6,0.4,0.9,0.6c4.3-3.1,8.7-6.1,12.9-9.4c3.2-2.5,5.1-1.8,6.5,2.1c-6,4.4-11.7,9.2-18,12.9
		c-6.1,3.6-8,9-9.5,16.6c11.3-8.1,21.8-15.6,32.6-23.4c1,1.6,1.9,2.8,2.9,4.5c-13.1,9.6-25.9,19-38.7,28.4c4.6,5.7,5.3,5.8,10.6,1.9
		c8.8-6.4,17.6-12.9,26.4-19.3c1.6-1.2,3.4-2.2,5-3.3c2.5,2.9,2.5,4.9-0.8,7.2c-8.7,6-17.2,12.4-25.8,18.7c-1.4,1-2.7,2.1-4,3.2
		c4.2,5.5,5.2,5.7,10.1,2.1c7.1-5.1,14.1-10.2,21.2-15.4c1.1-0.8,2.4-1.5,3.6-2.2c2.2,3.6,1.2,5.8-1.8,7.9
		c-7.3,5.2-14.5,10.5-21.8,15.8c4.3,5.6,5.3,5.7,10.2,2.1c4.9-3.6,9.8-7.1,15.2-10.9c0.9,3.9,0.8,6.5-2.6,8.7
		c-4,2.6-7.7,5.6-11.5,8.5c2.9,3.4,7.2,3.7,13.1,0.7c-1.4,4.6-2.6,8.6-4.1,13.6c-15.3-11.1-30-21.8-44.7-32.4c-4,5.5-3.8,6.9,1,10.3
		c12.1,8.8,24.2,17.6,36.3,26.4c1.2,0.9,2.2,1.8,3.6,2.9c-0.8,1.4-1.6,2.8-2.6,4.6c-14.5-10.5-28.7-20.8-42.9-31
		c-3.8,6.6-3.7,6.9,1.7,10.9c12,8.7,23.9,17.4,36.4,26.5c-1.1,1.5-2.1,2.8-3.3,4.4c-13.2-9.5-26.1-18.9-39-28.2
		c-4,6.1-3.9,6.8,1.5,10.7c9.3,6.8,18.6,13.5,27.9,20.2C216.5,221.8,217.6,222.7,219,223.9L219,223.9z"/>
	
		<linearGradient id="SVGID_00000110449588507210818760000000917670486027134863_" gradientUnits="userSpaceOnUse" x1="91.1331" y1="132.7934" x2="129.8031" y2="132.7934" gradientTransform="matrix(1 0 0 -1 0 281.1028)">
		<stop  offset="0" style="stop-color:#E94E1B"/>
		<stop  offset="1" style="stop-color:#8E181B"/>
	</linearGradient>
	<path style="fill:url(#SVGID_00000110449588507210818760000000917670486027134863_);" d="M97.3,197c-1.5-4.6-3-9.3-4.8-14.7
		c1.8,0.6,2.9,1,4,1.4c2.2-4.4,1.5-7.9-2.1-10.7c-2.4-1.8-3.4-4.7-3-8.7c3.2,2.1,6.1,4,9.1,6c3.9-5.9,3.8-6.6-1.6-10.5
		c-1.2-0.9-2.3-1.7-3.5-2.6c-2.5-1.9-3.2-4.6-2-8.1c3.8,2.7,7.6,5.3,11.3,7.9c4-5.8,3.9-6.8-1.4-10.6c-2.6-1.9-5.8-4-8.6-6
		c0.7-1.6,2-2.9,2.8-4.9c4.1,2.9,7.8,5.5,11.6,8.1c4-6.2,3.9-6.7-1.4-10.6c-1.1-0.8-2.1-1.6-3.2-2.3c-3.5-2-3.6-4.1-0.1-6.8
		c3,2,6,4.1,10.3,7.1c0.3-3.6,1.5-6.6,0.6-8.6c-1-2.2-4-3.5-6.5-5.4c1.3-1.4,2.1-3,3.2-4.2c2.1,1.2,4.2,2.8,6.3,4.1
		c1.4-3.3,4.2-6.1,0.1-9.8c3.7-2.6,7.2-5,10.7-7.5c0.3,0.2,0.6,0.5,0.8,0.7c-10.4,32.2-20.9,64.5-31.3,96.7
		C98.1,197,97.7,197,97.3,197L97.3,197z"/>
	
		<linearGradient id="SVGID_00000087403231335991206860000013931683427773157010_" gradientUnits="userSpaceOnUse" x1="136.2431" y1="116.353" x2="188.5931" y2="116.353" gradientTransform="matrix(1 0 0 -1 0 281.1028)">
		<stop  offset="0" style="stop-color:#E94E1B"/>
		<stop  offset="1" style="stop-color:#8E181B"/>
	</linearGradient>
	<path style="fill:url(#SVGID_00000087403231335991206860000013931683427773157010_);" d="M188.6,92.6
		c-15.7,48.5-31.4,96.9-47.3,145.7c-1.9-0.8-3.3-1.3-5.1-2c3.1-9.8,6.2-19.3,9.2-28.8c12.1-37.4,24.3-74.8,36.4-112.2
		C182.9,92,184.1,89.4,188.6,92.6z"/>
	
		<linearGradient id="SVGID_00000096780771628590377120000000802084353642554533_" gradientUnits="userSpaceOnUse" x1="125.0136" y1="120.4616" x2="175.4531" y2="120.4616" gradientTransform="matrix(1 0 0 -1 0 281.1028)">
		<stop  offset="0" style="stop-color:#E94E1B"/>
		<stop  offset="1" style="stop-color:#8E181B"/>
	</linearGradient>
	<path style="fill:url(#SVGID_00000096780771628590377120000000802084353642554533_);" d="M175.5,89.8
		c-15.5,47.6-30.8,94.9-46.2,142.3c-4.3-0.9-4.9-2.8-3.7-6.5c14.5-44.4,28.9-88.9,43.2-133.3C169.9,88.6,172.1,88.8,175.5,89.8z"/>
	
		<linearGradient id="SVGID_00000180332467403205838280000015446142208477849231_" gradientUnits="userSpaceOnUse" x1="113.9606" y1="124.289" x2="161.2931" y2="124.289" gradientTransform="matrix(1 0 0 -1 0 281.1028)">
		<stop  offset="0" style="stop-color:#E94E1B"/>
		<stop  offset="1" style="stop-color:#8E181B"/>
	</linearGradient>
	<path style="fill:url(#SVGID_00000180332467403205838280000015446142208477849231_);" d="M117.9,223.8c-3.5-1.7-4.7-3.6-3.4-7.4
		c13.3-40.7,26.5-81.5,39.6-122.2c1.1-3.5,2.9-5.1,7.2-4.2C146.8,134.7,132.4,179.2,117.9,223.8L117.9,223.8z"/>
	
		<linearGradient id="SVGID_00000029040631400408533470000004640366702385650835_" gradientUnits="userSpaceOnUse" x1="103.8796" y1="128.1996" x2="146.3331" y2="128.1996" gradientTransform="matrix(1 0 0 -1 0 281.1028)">
		<stop  offset="0" style="stop-color:#E94E1B"/>
		<stop  offset="1" style="stop-color:#8E181B"/>
	</linearGradient>
	<path style="fill:url(#SVGID_00000029040631400408533470000004640366702385650835_);" d="M146.3,92.9c-13,40.1-25.9,79.9-39,120.1
		c-3-2.9-4.3-5.2-2.9-9.3c11.5-34.7,22.7-69.5,33.9-104.3C139.5,95.7,141,92.8,146.3,92.9z"/>
	
		<linearGradient id="SVGID_00000162347834220472427200000015150796922327389868_" gradientUnits="userSpaceOnUse" x1="238.6631" y1="16.2484" x2="239.0531" y2="16.2484" gradientTransform="matrix(1 0 0 -1 0 281.1028)">
		<stop  offset="0" style="stop-color:#E94E1B"/>
		<stop  offset="1" style="stop-color:#8E181B"/>
	</linearGradient>
	<path style="fill:url(#SVGID_00000162347834220472427200000015150796922327389868_);" d="M238.7,264.9c0.1,0,0.3,0,0.4,0"/>
</g>
</svg>
